<svg xmlns="http://www.w3.org/2000/svg" width="400" height="400" viewBox="0 0 250 250">
<rect width="100%" height="100%" fill="#2f9e41"></rect>
<g transform="translate(34, 79)">
  <g fill="#f0f0f0">
      <rect x="0" y="24" width="20" height="20" rx="2" ry="2"></rect>
      <rect x="0" y="48" width="20" height="20" rx="2" ry="2"></rect>
      <rect x="0" y="72" width="20" height="20" rx="2" ry="2"></rect>
  
      <rect x="30" y="0" width="20" height="20" rx="2" ry="2"></rect>
      <rect x="30" y="24" width="20" height="20" rx="2" ry="2"></rect>
      <rect x="30" y="48" width="20" height="20" rx="2" ry="2"></rect>
      <rect x="30" y="72" width="20" height="20" rx="2" ry="2"></rect>
      <rect x="54" y="0" width="20" height="20" rx="2" ry="2"></rect>
      <rect x="54" y="48" width="20" height="20" rx="2" ry="2"></rect>
  
      <rect x="30" y="0" width="20" height="20" rx="2" ry="2"></rect>
      <rect x="30" y="24" width="20" height="20" rx="2" ry="2"></rect>
      <rect x="30" y="48" width="20" height="20" rx="2" ry="2"></rect>
      <rect x="30" y="72" width="20" height="20" rx="2" ry="2"></rect>
      <rect x="54" y="0" width="20" height="20" rx="2" ry="2"></rect>
      <rect x="54" y="48" width="20" height="20" rx="2" ry="2"></rect>
  
      <rect x="84" y="24" width="20" height="20" rx="2" ry="2"></rect>
      <rect x="84" y="48" width="20" height="20" rx="2" ry="2"></rect>
      <rect x="84" y="72" width="20" height="20" rx="2" ry="2"></rect>
      <rect x="108" y="0" width="20" height="20" rx="2" ry="2"></rect>
      <rect x="108" y="48" width="20" height="20" rx="2" ry="2"></rect>
      <rect x="132" y="24" width="20" height="20" rx="2" ry="2"></rect>
      <rect x="132" y="48" width="20" height="20" rx="2" ry="2"></rect>
      <rect x="132" y="72" width="20" height="20" rx="2" ry="2"></rect>
  
      <rect x="162" y="24" width="20" height="20" rx="2" ry="2"></rect>
      <rect x="162" y="48" width="20" height="20" rx="2" ry="2"></rect>
      <rect x="162" y="72" width="20" height="20" rx="2" ry="2"></rect>
  </g>
  <circle cx="10" cy="10" r="11"  fill="#cd191e"></circle>
  <circle cx="172" cy="10" r="11"  fill="#cd191e"></circle>
</g>
</svg>